[img]http://i.imgur.com/ErCBA.jpg[/img]
[code]

For.A.Good.Time.Call.2012.480p.BDRip.XViD.AC3-26k
 
http://www.imdb.com/title/tt1996264/

Plot:

Former college frenemies Lauren and Katie move into a fabulous Gramercy Park apartment, and in order to 
make ends meet, the unlikely pair start a phone sex line together.

Sources - VIDEO: For.A.Good.Time.Call.2012.1080p.BluRay.AVC.DTS-HD.MA.5.1 ..... thanks .... :P
          AUDIO: For.A.Good.Time.Call.2012.1080p.BluRay.AVC.DTS-HD.MA.5.1 ..... thanks .... :P         

Format                                   : AVI
Format/Info                              : Audio Video Interleave
File size                                : 1.54 GiB
Duration                                 : 1h 27mn
Overall bit rate                         : 2 519 Kbps

Video
ID                                       : 0
Format                                   : MPEG-4 Visual
Format profile                           : Advanced Simple@L5
Format settings, BVOP                    : 2
Format settings, QPel                    : No
Format settings, GMC                     : No warppoints
Format settings, Matrix                  : Default (H.263)
Codec ID                                 : XVID
Codec ID/Hint                            : XviD
Duration                                 : 1h 27mn
Bit rate                                 : 2 000 Kbps
Width                                    : 720 pixels
Height                                   : 304 pixels
Display aspect ratio                     : 2.35:1
Frame rate                               : 23.976 fps
Color space                              : YUV
Chroma subsampling                       : 4:2:0
Bit depth                                : 8 bits
Scan type                                : Progressive
Compression mode                         : Lossy
Bits/(Pixel*Frame)                       : 0.381
Stream size                              : 1.22 GiB (79%)
Writing library                          : XviD 1.2.1 (UTC 2008-12-04)

Audio
ID                                       : 1
Format                                   : AC-3
Format/Info                              : Audio Coding 3
Mode extension                           : CM (complete main)
Format settings, Endianness              : Big
Codec ID                                 : 2000
Duration                                 : 1h 27mn
Bit rate mode                            : Constant
Bit rate                                 : 512 Kbps
Channel(s)                               : 6 channels
Channel positions                        : Front: L C R, Side: L R, LFE
Sampling rate                            : 48.0 KHz
Bit depth                                : 16 bits
Compression mode                         : Lossy
Stream size                              : 320 MiB (20%)
Alignment                                : Aligned on interleaves
Interleave, duration                     : 64 ms (1.53 video frames)
Interleave, preload duration             : 192 ms
Title                                    : 512

Notes -
Took the BD made a script to make magic happen and this is the outcome.. enjoy

[/code]

Screens:
[img]http://i.imgur.com/bGN6F.png[/img]
[img]http://i.imgur.com/1qz6t.png[/img]
[img]http://i.imgur.com/LBoPL.png[/img]
[img]http://i.imgur.com/Rnioe.png[/img]
[img]http://i.imgur.com/wmWXb.jpg[/img]
[img]http://imageshack.us/a/img191/4394/55681721.png[/img]
[img]http://imageshack.us/a/img255/9000/11176034.png[/img]
[img]http://imageshack.us/a/img850/9051/44925296.png[/img]
[img]http://imageshack.us/a/img248/32/83953684.png[/img]
[img]http://imageshack.us/a/img708/2809/71129915.png[/img]

Greetz:
XtremeEncode|CM8|RX|VISION|HDSCENE|xTriLL|ADTRG|CRYS|REMIXHD|HS|Tommiecook
BIDA|RX|REFILL|INSPiRAL|AXED|HOPE|Anonymous|GooN|NOIR|Blackjesus|Gabroo Punjab Deh
|UNiQUE|RESiSTANCE|TRiNiTY|LEGION

To all the people who have helped me, you know who you are

Anything to offer email us @: 26k@hushmail.me 